<?xml version="1.0" encoding="UTF-8" standalone="no"?>
<!DOCTYPE svg PUBLIC "-//W3C//DTD SVG 1.1//EN"
 "http://www.w3.org/Graphics/SVG/1.1/DTD/svg11.dtd">
<!-- Generated by graphviz version 2.47.0 (20210316.0004)
 -->
<!-- Title: main Pages: 1 -->
<svg width="274pt" height="142pt"
 viewBox="0.00 0.00 274.00 142.00" xmlns="http://www.w3.org/2000/svg" xmlns:xlink="http://www.w3.org/1999/xlink">
<g id="graph0" class="graph" transform="scale(1 1) rotate(0) translate(4 138)">
<title>main</title>
<polygon fill="white" stroke="transparent" points="-4,4 -4,-138 270,-138 270,4 -4,4"/>
<!-- Node1 -->
<g id="node1" class="node">
<title>Node1</title>
<g id="a_node1"><a xlink:title=" ">
<polygon fill="#bfbfbf" stroke="black" points="0,-57.5 0,-76.5 38,-76.5 38,-57.5 0,-57.5"/>
<text text-anchor="middle" x="19" y="-64.5" font-family="Helvetica,sans-Serif" font-size="10.00">main</text>
</a>
</g>
</g>
<!-- Node2 -->
<g id="node2" class="node">
<title>Node2</title>
<g id="a_node2"><a target="_blank" xlink:href="http://en.cppreference.com/w/cpp/io/manip/endl.html#" xlink:title=" ">
<polygon fill="white" stroke="black" points="105,-114.5 105,-133.5 159,-133.5 159,-114.5 105,-114.5"/>
<text text-anchor="middle" x="132" y="-121.5" font-family="Helvetica,sans-Serif" font-size="10.00">std::endl</text>
</a>
</g>
</g>
<!-- Node1&#45;&gt;Node2 -->
<g id="edge1" class="edge">
<title>Node1&#45;&gt;Node2</title>
<path fill="none" stroke="midnightblue" d="M31.38,-76.5C41.9,-84.91 58.24,-97.04 74,-105 80.66,-108.36 88.04,-111.33 95.23,-113.86"/>
<polygon fill="midnightblue" stroke="midnightblue" points="94.23,-117.21 104.82,-117.03 96.43,-110.56 94.23,-117.21"/>
</g>
<!-- Node3 -->
<g id="node3" class="node">
<title>Node3</title>
<g id="a_node3"><a target="_blank" xlink:href="http://en.cppreference.com/w/cpp/container/vector/push_back.html#" xlink:title=" ">
<polygon fill="white" stroke="black" points="74,-76.5 74,-95.5 190,-95.5 190,-76.5 74,-76.5"/>
<text text-anchor="middle" x="132" y="-83.5" font-family="Helvetica,sans-Serif" font-size="10.00">std::vector::push_back</text>
</a>
</g>
</g>
<!-- Node1&#45;&gt;Node3 -->
<g id="edge2" class="edge">
<title>Node1&#45;&gt;Node3</title>
<path fill="none" stroke="midnightblue" d="M38.33,-70.14C46,-71.45 55.41,-73.06 65.28,-74.75"/>
<polygon fill="midnightblue" stroke="midnightblue" points="64.79,-78.22 75.24,-76.46 65.97,-71.32 64.79,-78.22"/>
</g>
<!-- Node4 -->
<g id="node4" class="node">
<title>Node4</title>
<g id="a_node4"><a xlink:href="../../d3/df9/recursive__bubble__sort_8cpp.html#a9a03ca903cbd98149a4b25510c80c282" target="_top" xlink:title=" ">
<polygon fill="white" stroke="black" points="76,-38.5 76,-57.5 188,-57.5 188,-38.5 76,-38.5"/>
<text text-anchor="middle" x="132" y="-45.5" font-family="Helvetica,sans-Serif" font-size="10.00">recursive_bubble_sort</text>
</a>
</g>
</g>
<!-- Node1&#45;&gt;Node4 -->
<g id="edge3" class="edge">
<title>Node1&#45;&gt;Node4</title>
<path fill="none" stroke="midnightblue" d="M38.33,-63.86C46.09,-62.53 55.64,-60.9 65.63,-59.19"/>
<polygon fill="midnightblue" stroke="midnightblue" points="66.46,-62.6 75.72,-57.46 65.28,-55.7 66.46,-62.6"/>
</g>
<!-- Node6 -->
<g id="node6" class="node">
<title>Node6</title>
<g id="a_node6"><a target="_blank" xlink:href="http://en.cppreference.com/w/cpp/container/vector/size.html#" xlink:title=" ">
<polygon fill="white" stroke="black" points="88.5,-0.5 88.5,-19.5 175.5,-19.5 175.5,-0.5 88.5,-0.5"/>
<text text-anchor="middle" x="132" y="-7.5" font-family="Helvetica,sans-Serif" font-size="10.00">std::vector::size</text>
</a>
</g>
</g>
<!-- Node1&#45;&gt;Node6 -->
<g id="edge5" class="edge">
<title>Node1&#45;&gt;Node6</title>
<path fill="none" stroke="midnightblue" d="M31.38,-57.5C41.9,-49.09 58.24,-36.96 74,-29 78.26,-26.85 82.81,-24.86 87.42,-23.05"/>
<polygon fill="midnightblue" stroke="midnightblue" points="88.71,-26.3 96.88,-19.57 86.29,-19.74 88.71,-26.3"/>
</g>
<!-- Node5 -->
<g id="node5" class="node">
<title>Node5</title>
<g id="a_node5"><a xlink:href="../../d3/df9/recursive__bubble__sort_8cpp.html#acd3415eef442ced2b5e064f95f04b624" target="_top" xlink:title=" ">
<polygon fill="white" stroke="black" points="226,-38.5 226,-57.5 266,-57.5 266,-38.5 226,-38.5"/>
<text text-anchor="middle" x="246" y="-45.5" font-family="Helvetica,sans-Serif" font-size="10.00">swap</text>
</a>
</g>
</g>
<!-- Node4&#45;&gt;Node5 -->
<g id="edge4" class="edge">
<title>Node4&#45;&gt;Node5</title>
<path fill="none" stroke="midnightblue" d="M188.02,-48C197.58,-48 207.19,-48 215.72,-48"/>
<polygon fill="midnightblue" stroke="midnightblue" points="215.86,-51.5 225.86,-48 215.86,-44.5 215.86,-51.5"/>
</g>
</g>
</svg>
